# xmcd
#
# Track frame offsets:
#	150
#	13414
#	24804
#	40840
#	53400
#	69248
#	81794
#	99596
#	113748
#	124943
#	139767
#	150687
#
# Disc length: 2248 seconds
# Revision: 0
# Processed by: cddbd v1.5.2PL0 Copyright (c) Steve Scherf et al.
# Submitted via: dBpowerAMP V12.0
#
DISCID=9008c60c
DTITLE=Tommy Webb - From Rock-N-Roll to Bill Monroe
DYEAR=2011
DGENRE=Bluegrass
TTITLE0=This Heart You Have Broken
TTITLE1=Time Stands Still
TTITLE2=Mont Coal, W.V.
TTITLE3=From Rock-N-Roll to Bill Monroe
TTITLE4=How Far is Heaven
TTITLE5=Cold Heart, Cold Feet
TTITLE6=Will You Choose to Live
TTITLE7=High Lonesome
TTITLE8=Humdinger
TTITLE9=The Touch of an Unseen Hand
TTITLE10=Love Me Darlin' Just Tonight
TTITLE11=Shady Grove
EXTD=
EXTT0=
EXTT1=
EXTT2=
EXTT3=
EXTT4=
EXTT5=
EXTT6=
EXTT7=
EXTT8=
EXTT9=
EXTT10=
EXTT11=
PLAYORDER=
